<?xml version="1.0" standalone="no"?>
<!DOCTYPE svg PUBLIC "-//W3C//DTD SVG 20010904//EN"
 "http://www.w3.org/TR/2001/REC-SVG-20010904/DTD/svg10.dtd">
<svg version="1.0" xmlns="http://www.w3.org/2000/svg"
 width="1024.000000pt" height="1024.000000pt" viewBox="0 0 1024.000000 1024.000000"
 preserveAspectRatio="xMidYMid meet">

<g transform="translate(0.000000,1024.000000) scale(0.100000,-0.100000)"
fill="#000000" stroke="none">
<path d="M2 9024 l3 -1216 58 -18 c62 -19 92 -40 176 -119 29 -28 60 -51 67
-51 31 0 25 32 -16 86 -49 66 -79 128 -80 167 -1 124 101 236 216 237 59 0
142 -45 179 -98 24 -35 30 -55 33 -111 5 -75 -7 -106 -63 -176 -93 -116 -60
-147 49 -46 71 66 113 90 198 115 179 51 318 23 318 -66 0 -75 -73 -140 -233
-209 -53 -23 -101 -47 -106 -53 -5 -6 -15 -45 -24 -87 -29 -143 -97 -248 -198
-304 -49 -27 -62 -30 -149 -30 -79 0 -103 4 -142 23 -104 51 -182 166 -213
310 -16 72 -39 112 -66 112 -5 0 -9 -829 -9 -1974 l0 -1974 72 74 c71 73 81
78 91 39 3 -11 5 46 6 127 1 130 4 153 23 193 12 25 25 45 28 45 11 0 40 -72
44 -105 2 -17 4 -70 5 -120 l1 -90 141 -90 c189 -121 189 -121 189 -156 0 -37
-8 -37 -195 -5 -77 13 -142 22 -145 19 -3 -2 -6 -92 -8 -199 l-3 -194 -29 0
c-40 0 -43 15 -37 209 4 128 3 160 -7 154 -7 -5 -49 -37 -94 -73 l-82 -65 0
-273 0 -273 22 15 c15 11 45 16 94 16 70 0 72 1 82 28 15 43 62 93 107 113 98
45 203 8 262 -91 22 -37 23 -37 105 -44 127 -11 201 -54 238 -140 43 -97 33
-175 -30 -238 l-38 -38 -343 -1 c-189 -1 -379 0 -421 1 l-78 2 0 -81 c0 -45 1
-82 3 -83 1 -2 339 -5 752 -8 681 -5 750 -6 753 -21 2 -10 -6 -19 -20 -23 -13
-3 -353 -6 -755 -6 l-733 0 0 -50 c0 -47 1 -49 20 -38 31 20 34 3 6 -39 -26
-38 -26 -38 -26 -254 l0 -216 25 5 c33 6 33 -20 0 -54 l-25 -25 0 -744 0 -745
5120 0 5120 0 0 5120 0 5120 -5120 0 -5120 0 2 -1216z m8177 465 c99 -22 219
-141 237 -234 6 -32 7 -33 67 -38 87 -8 132 -23 173 -59 95 -84 99 -215 8
-284 l-37 -29 -366 -7 c-201 -4 -442 -5 -536 -2 -198 7 -229 17 -269 86 -54
94 -43 180 33 259 56 57 85 66 246 73 115 4 120 6 126 28 25 94 116 188 204
209 43 10 64 10 114 -2z m-2014 -25 c13 -8 28 -29 34 -46 12 -35 15 -866 4
-1130 l-6 -158 -1126 -2 c-619 -2 -1127 -2 -1129 -2 -7 4 -8 1229 -1 1267 4
26 17 50 34 64 l26 23 1070 0 c954 0 1072 -2 1094 -16z m761 -126 c29 -90 39
-103 109 -138 45 -22 65 -38 63 -49 -2 -8 -35 -31 -73 -51 -68 -35 -71 -37
-96 -100 -19 -48 -31 -66 -47 -68 -17 -3 -24 6 -39 49 -22 64 -66 111 -120
127 -49 14 -71 37 -57 59 5 8 36 29 69 46 61 32 75 50 109 140 12 29 20 37 40
37 21 0 27 -8 42 -52z m-3659 0 c67 -75 156 -246 189 -363 24 -89 30 -293 10
-378 -23 -98 -233 -617 -250 -617 -2 0 -12 -3 -21 -6 -15 -6 -16 20 -13 334
l3 341 35 31 c19 18 54 48 78 68 54 44 68 68 51 88 -19 23 -32 17 -97 -42
l-62 -56 0 79 0 78 40 29 c22 16 53 44 70 61 29 30 30 33 15 49 -9 9 -20 16
-25 16 -9 0 -79 -57 -92 -75 -4 -5 -8 39 -8 99 0 94 -2 107 -16 102 -9 -3 -19
-6 -24 -6 -5 0 -15 -6 -23 -14 -11 -12 -13 -44 -9 -170 2 -86 1 -156 -4 -156
-5 0 -41 34 -80 76 l-72 76 -21 -21 c-12 -12 -21 -27 -21 -35 0 -7 43 -55 95
-105 l96 -91 -3 -70 -3 -69 -73 65 c-72 66 -95 74 -109 38 -4 -11 23 -44 90
-112 l95 -97 -2 -85 c-2 -47 -4 -160 -5 -252 l-1 -168 -109 0 c-95 0 -109 2
-114 18 -3 9 -31 84 -62 166 -113 298 -136 452 -95 623 40 166 151 329 301
441 53 40 206 132 220 132 3 0 15 -10 26 -22z m-2821 -60 c68 -51 80 -70 56
-92 -17 -14 -22 -13 -72 25 -69 52 -86 75 -70 94 18 22 25 19 86 -27z m8786
-13 c29 -31 52 -62 50 -69 -1 -8 7 -16 19 -19 19 -5 20 -8 9 -21 -7 -9 -16
-16 -20 -16 -16 0 -150 133 -150 149 0 48 30 40 92 -24z m133 25 c0 -16 -6
-26 -18 -28 -19 -4 -32 20 -23 44 9 25 41 13 41 -16z m163 18 c21 -21 13 -35
-58 -105 -86 -83 -115 -133 -77 -133 5 0 6 8 3 17 -5 12 2 9 21 -9 15 -14 49
-45 76 -68 51 -46 57 -64 28 -80 -15 -8 -22 -7 -28 4 -4 7 -38 46 -75 85 l-66
71 -85 -80 c-84 -80 -117 -94 -117 -50 0 16 344 359 361 360 3 0 10 -5 17 -12z
m-8290 -38 c93 -36 202 -115 257 -188 141 -183 154 -427 35 -627 -140 -235
-432 -332 -698 -233 -53 20 -157 92 -220 152 -75 72 -142 243 -142 360 1 139
67 293 173 400 79 79 133 113 229 144 89 29 102 31 199 27 66 -3 104 -11 167
-35z m1235 -16 c47 -63 20 -167 -54 -204 -35 -18 -59 -20 -278 -20 -227 0
-241 -1 -251 -19 -5 -11 -10 -31 -10 -45 0 -30 -10 -32 -50 -11 -37 19 -50 43
-50 92 1 39 9 54 49 88 21 19 42 20 276 25 297 6 295 5 295 97 l0 54 28 -16
c15 -9 35 -28 45 -41z m-815 30 c12 -8 22 -26 22 -39 0 -24 -41 -65 -66 -65
-21 0 -54 37 -54 60 0 25 34 60 58 60 10 0 28 -7 40 -16z m-1318 -355 c33 -12
40 -38 15 -59 -11 -9 -29 -9 -85 1 -77 13 -95 27 -85 60 7 20 11 21 66 15 32
-4 72 -12 89 -17z m9021 11 c15 -9 17 -15 9 -30 -6 -11 -20 -20 -30 -20 -16 0
-20 7 -20 30 0 32 9 36 41 20z m-2731 -55 c26 -32 -13 -81 -47 -59 -35 22 -23
74 17 74 10 0 23 -7 30 -15z m2803 -90 c219 -46 387 -252 387 -475 0 -126 -52
-235 -162 -342 l-80 -78 22 -54 c24 -60 24 -89 -1 -94 -11 -2 -25 18 -47 67
l-31 70 -46 -15 c-46 -16 -205 -15 -267 1 -25 7 -28 3 -60 -65 -31 -66 -34
-70 -52 -57 -18 13 -18 16 5 87 l24 73 -25 16 c-88 57 -164 159 -201 268 -55
167 -2 355 137 483 73 67 206 121 314 129 8 0 45 -6 83 -14z m-6911 -40 c9
-21 8 -28 -7 -45 -24 -26 -50 -25 -69 2 -20 28 -20 33 0 52 24 25 63 20 76 -9z
m4939 -158 c78 -42 83 -60 89 -312 l5 -220 303 0 302 0 0 -22 0 -23 -305 0
-304 0 -3 -339 c-3 -325 -4 -341 -24 -367 -11 -15 -33 -37 -48 -48 -26 -20
-40 -21 -331 -21 -291 0 -305 1 -332 21 -15 11 -37 38 -48 60 -19 37 -20 62
-23 564 -4 578 -2 604 51 664 52 60 80 65 368 66 249 0 257 -1 300 -23z
m-7097 -43 c9 -8 16 -19 16 -23 0 -15 -36 -40 -90 -61 -51 -20 -55 -20 -67 -4
-23 31 -14 44 50 74 72 35 71 35 91 14z m2310 -176 c22 -73 59 -186 83 -251
23 -65 43 -124 43 -132 0 -10 -10 -15 -30 -15 -36 0 -35 -1 -119 250 -81 241
-86 261 -69 271 7 5 22 9 33 9 18 0 26 -18 59 -132z m890 100 c-12 -40 -91
-239 -146 -368 -49 -115 -56 -125 -82 -128 -23 -3 -28 0 -22 13 3 9 50 127
103 261 96 238 99 244 126 244 25 0 27 -3 21 -22z m4533 -27 c12 -25 3 -57
-21 -73 -32 -22 -86 7 -86 45 0 56 82 77 107 28z m-5992 -106 c37 -111 66
-145 157 -179 85 -31 89 -73 10 -102 -88 -33 -122 -61 -148 -122 -41 -96 -46
-103 -68 -100 -21 3 -28 14 -72 111 -27 60 -72 96 -139 112 -40 9 -55 23 -55
50 0 28 10 37 91 78 67 34 78 48 129 170 17 43 22 48 47 45 24 -3 31 -11 48
-63z m6317 -151 c57 -29 81 -104 55 -167 -36 -85 -150 -103 -213 -34 -56 60
-55 134 1 187 42 39 97 44 157 14z m-1972 -175 c0 -50 -78 -130 -144 -149 -29
-8 -163 -9 -461 -5 -462 6 -858 7 -1571 3 l-470 -3 -35 24 c-46 33 -88 84 -99
121 l-9 30 1395 0 1394 0 0 -21z m-3094 -104 c15 -11 16 -17 7 -38 -15 -33
-35 -36 -340 -36 -214 0 -254 2 -268 15 -18 18 -20 45 -3 62 18 18 579 15 604
-3z m2042 -119 c16 -16 6 -43 -20 -52 -27 -8 -571 -8 -597 1 -26 8 -36 42 -19
62 12 14 45 15 318 9 226 -5 308 -10 318 -20z m-3826 -55 c33 -63 36 -126 10
-185 l-18 -39 -37 55 c-29 42 -38 64 -38 99 -1 50 28 132 45 126 6 -2 23 -27
38 -56z m1736 -46 c7 -3 12 -15 10 -27 -3 -23 -3 -23 -243 -28 -132 -3 -250
-3 -262 -1 -18 2 -23 10 -23 31 0 16 4 30 10 32 15 5 493 -2 508 -7z m5167
-50 c90 -23 193 -78 257 -137 61 -57 78 -84 78 -120 0 -37 -22 -61 -150 -163
-66 -52 -125 -104 -132 -115 -7 -11 -23 -20 -36 -20 -15 0 -26 -9 -33 -26 -5
-15 -8 -28 -7 -29 2 0 39 -9 82 -19 82 -19 193 -71 234 -109 32 -30 62 -90 62
-125 0 -28 3 -30 49 -34 71 -7 157 -52 187 -98 48 -73 40 -128 -26 -181 -42
-34 -147 -54 -227 -44 l-53 6 18 23 c15 21 28 24 104 28 95 6 131 21 151 65 9
21 8 31 -8 61 -26 47 -72 73 -143 79 l-57 5 -27 -69 c-88 -219 -355 -332 -622
-263 -139 35 -243 115 -301 231 -39 76 -47 200 -16 259 12 23 21 59 21 83 0
70 59 112 190 138 55 11 60 14 60 38 0 36 -8 44 -126 139 -56 44 -113 95 -128
112 -49 59 -26 144 53 194 51 32 151 73 221 91 76 19 252 19 325 0z m1228 -35
c19 -13 42 -36 51 -50 13 -22 26 -28 87 -37 53 -9 81 -19 108 -41 69 -55 102
-146 81 -223 -14 -52 -73 -116 -119 -130 -23 -6 -149 -9 -356 -7 -318 3 -321
3 -350 26 -148 117 -45 341 146 319 42 -5 51 -3 55 11 17 57 52 108 94 134 40
26 52 29 106 26 44 -3 71 -11 97 -28z m-8271 -21 c19 -10 53 -68 44 -76 -3 -3
-24 2 -47 11 -23 9 -43 15 -46 13 -4 -5 50 -53 87 -79 22 -14 23 -17 7 -23
-26 -11 -81 3 -111 26 -15 12 -40 47 -56 79 -27 53 -28 59 -12 64 24 7 111 -3
134 -15z m2651 -57 c37 -17 78 -43 93 -57 l26 -26 -39 -27 c-21 -15 -88 -60
-150 -101 l-112 -73 -129 87 c-72 47 -137 94 -146 104 -15 17 -14 20 16 43 89
68 159 89 279 85 83 -3 106 -8 162 -35z m567 -165 l5 -199 33 -29 c20 -18 45
-30 65 -30 17 -1 43 -2 57 -3 18 -1 24 -6 22 -18 -2 -10 2 -18 8 -18 5 0 10 7
10 15 0 13 38 15 285 15 264 0 285 -1 286 -17 1 -17 2 -17 6 0 4 17 13 19 108
22 65 3 101 14 126 41 23 25 24 32 29 222 5 195 5 197 28 200 l22 3 0 -188 c0
-176 -2 -192 -22 -233 -15 -30 -37 -53 -63 -67 -47 -26 -85 -30 -85 -8 0 8 -5
15 -10 15 -6 0 -13 -7 -16 -15 -5 -13 -60 -15 -413 -15 -402 0 -406 1 -446 23
-22 12 -50 38 -62 56 -22 33 -23 42 -23 233 l0 199 23 -3 c22 -3 22 -5 27
-201z m-2713 127 c109 -68 142 -202 83 -340 -52 -120 -235 -344 -351 -429
l-49 -37 -38 28 c-136 104 -289 284 -351 414 -32 67 -36 84 -36 155 0 66 4 87
24 123 14 23 28 42 31 42 4 0 17 -11 30 -25 27 -29 105 -55 162 -55 25 0 52 9
76 25 20 14 40 21 45 16 4 -4 6 -50 5 -101 l-3 -94 -53 47 c-55 49 -72 52 -72
12 0 -16 20 -41 66 -81 l66 -59 -6 -64 c-6 -71 2 -91 39 -91 38 0 50 24 35 69
-17 53 -7 84 35 107 23 12 35 26 35 40 0 28 -28 39 -50 19 -9 -8 -20 -15 -23
-15 -4 0 -7 51 -7 114 l0 114 41 36 c84 72 181 82 266 30z m3073 -79 c11 -20
10 -28 -4 -50 -20 -30 -56 -33 -80 -6 -23 25 -17 63 12 77 31 15 57 8 72 -21z
m-1412 -38 c65 -69 86 -225 44 -320 -22 -50 -69 -117 -82 -117 -16 0 -61 107
-71 168 -13 82 3 172 42 240 16 29 33 52 37 52 5 0 18 -10 30 -23z m692 -60
c14 -31 24 -81 27 -129 5 -65 2 -88 -17 -140 -13 -35 -30 -74 -39 -87 l-15
-24 -33 38 c-45 52 -68 124 -68 215 0 97 8 122 52 171 33 37 37 38 53 24 10
-9 28 -39 40 -68z m2139 47 c29 -37 27 -78 -5 -103 -23 -18 -41 -21 -135 -21
l-108 0 -35 -33 c-36 -34 -53 -75 -42 -103 6 -15 20 -16 121 -11 109 6 115 5
129 -15 11 -15 12 -26 5 -39 -8 -16 -26 -19 -132 -21 l-122 -3 -3 -26 c-2 -15
4 -43 12 -62 19 -46 56 -57 203 -57 104 0 113 -2 124 -21 14 -26 4 -83 -18
-100 -12 -10 -49 -14 -139 -12 -107 1 -130 4 -176 26 -96 44 -152 123 -168
237 -16 113 15 216 89 293 58 62 103 80 211 87 173 12 167 12 189 -16z m-3699
-15 c7 -12 9 -41 4 -75 -6 -49 -9 -55 -28 -52 -18 3 -21 11 -24 62 -2 32 -1
65 2 72 8 21 34 17 46 -7z m1064 -115 c36 -25 68 -49 71 -55 10 -15 50 -10 76
9 13 10 50 34 81 54 l56 37 0 -88 c0 -116 31 -210 90 -273 30 -32 25 -41 -47
-87 -138 -89 -341 -78 -476 25 l-35 27 23 31 c67 87 102 202 94 302 -2 35 -3
64 -1 64 2 0 32 -21 68 -46z m-1396 11 c11 -13 25 -38 32 -56 11 -26 11 -32
-1 -40 -21 -13 -31 -7 -62 44 -24 39 -27 50 -17 62 17 21 26 19 48 -10z m672
-7 c0 -6 -12 -31 -27 -55 -20 -31 -34 -43 -48 -41 -30 4 -29 28 5 81 26 42 32
46 50 37 11 -6 20 -16 20 -22z m-210 -106 c99 -34 143 -63 226 -146 124 -123
169 -228 168 -391 0 -85 -4 -109 -26 -162 -23 -55 -86 -148 -94 -140 -2 2 10
36 27 76 65 155 72 273 22 401 -73 185 -216 300 -413 331 -170 26 -355 -51
-463 -194 -116 -153 -136 -339 -58 -524 39 -91 39 -102 0 -62 -67 68 -106 201
-95 325 24 291 288 526 571 510 44 -3 105 -14 135 -24z m-2671 -138 c-14 -13
-20 -14 -37 -3 -33 21 -48 55 -32 74 12 15 17 12 49 -19 32 -33 34 -37 20 -52z
m559 64 c2 -9 -10 -31 -27 -50 -28 -31 -31 -32 -47 -16 -17 17 -17 18 2 40 10
12 24 28 29 35 13 17 39 12 43 -9z m2058 -21 c121 -25 230 -114 290 -234 35
-72 38 -86 42 -181 5 -123 -14 -190 -84 -289 -57 -81 -177 -182 -231 -196 -21
-5 -23 -2 -23 39 0 108 30 188 116 311 93 132 92 247 -4 346 -54 56 -105 79
-187 85 -121 7 -231 -53 -276 -153 -39 -84 -18 -210 45 -286 61 -72 106 -198
106 -294 0 -38 -3 -45 -19 -45 -27 0 -131 81 -196 152 -99 110 -145 276 -111
405 42 165 143 278 295 330 75 25 148 29 237 10z m4474 -22 c55 -28 33 -92
-70 -200 l-47 -50 18 -170 c25 -232 26 -219 -17 -244 -20 -12 -38 -20 -41 -18
-2 2 -30 66 -63 141 -33 75 -61 140 -64 145 -3 4 -30 -16 -62 -45 -55 -51 -56
-53 -49 -94 6 -36 4 -44 -20 -65 -14 -14 -28 -25 -30 -25 -8 0 -26 70 -20 80
3 5 0 10 -7 10 -7 0 -42 -28 -78 -63 l-65 -63 -27 26 -27 27 69 59 c38 32 69
61 69 64 0 3 -21 15 -48 27 -40 18 -48 26 -44 43 6 24 10 24 79 4 l55 -16 55
54 55 54 -119 64 c-170 90 -164 83 -121 126 l35 35 119 -26 c75 -16 131 -23
152 -19 21 4 44 1 59 -7 23 -12 28 -9 87 47 63 61 125 114 133 114 3 0 18 -7
34 -15z m-5063 -98 c-9 -29 -35 -31 -71 -3 -38 28 -44 44 -25 63 9 9 23 4 56
-18 24 -17 42 -36 40 -42z m1071 51 c19 -19 14 -32 -24 -56 -67 -44 -101 -6
-36 40 43 32 44 32 60 16z m-471 -138 c66 -38 103 -97 103 -164 0 -55 -12 -82
-79 -170 -67 -88 -111 -212 -111 -311 0 -34 -18 -49 -45 -39 -9 4 -15 20 -15
43 -1 92 -44 208 -120 321 -63 95 -75 161 -41 235 50 109 196 149 308 85z
m-2189 -37 l3 -33 159 0 159 0 3 33 c3 28 6 32 33 32 19 0 29 -5 27 -12 -1 -7
3 -13 9 -13 6 0 9 -6 7 -12 -3 -7 2 -19 9 -27 9 -8 12 -23 9 -37 l-6 -23 144
0 c161 1 194 -9 221 -61 23 -44 22 -716 0 -765 -30 -62 -13 -60 -626 -60
l-559 0 -32 33 -33 32 -3 365 c-2 319 -1 370 13 399 25 51 56 60 216 58 l139
-2 0 24 c0 14 8 30 19 35 10 6 21 24 25 41 5 27 10 31 33 28 23 -2 29 -8 31
-35z m9207 -65 c27 -82 51 -115 93 -128 20 -7 47 -19 60 -26 32 -21 14 -48
-45 -70 -65 -24 -69 -28 -104 -100 -38 -82 -60 -85 -84 -14 -21 63 -61 104
-119 121 -29 8 -46 20 -50 33 -7 27 -1 34 57 60 62 27 79 46 103 106 22 57 32
70 54 70 13 0 23 -15 35 -52z m-2045 -17 c0 -25 -7 -33 -43 -50 -53 -25 -83
-56 -92 -93 -10 -41 42 -90 120 -112 33 -10 115 -47 182 -82 142 -75 240 -104
364 -107 118 -3 102 -17 -19 -17 -119 0 -217 25 -319 81 -51 27 -101 45 -168
58 -110 23 -170 52 -202 100 -30 45 -29 89 3 137 29 43 47 58 108 91 55 30 66
29 66 -6z m-2428 -92 c345 -68 645 -249 855 -516 79 -101 103 -137 103 -155
-1 -14 -66 -65 -115 -90 -17 -9 -39 -25 -49 -37 -29 -32 -41 -26 -65 31 -53
128 -257 391 -391 504 -132 112 -319 215 -347 192 -7 -6 -13 -14 -13 -18 0 -4
39 -31 88 -59 86 -51 208 -147 225 -177 6 -10 3 -22 -8 -34 -17 -18 -145 -90
-162 -90 -5 0 -29 42 -54 93 -58 116 -145 232 -238 320 l-73 68 74 -6 c40 -4
117 -16 170 -26z m-367 5 c-51 -38 -151 -145 -190 -204 -23 -36 -65 -106 -92
-157 l-49 -91 -71 33 c-39 18 -80 42 -92 54 -20 20 -20 23 -5 46 21 32 137
119 232 174 39 23 72 48 72 55 0 27 -32 25 -96 -4 -242 -109 -500 -370 -649
-655 l-44 -84 -100 72 c-58 41 -101 79 -101 89 0 21 98 153 175 236 195 210
482 371 760 425 117 23 124 24 200 25 64 1 68 0 50 -14z m-3097 -146 c28 -28
7 -78 -33 -78 -27 0 -45 18 -45 45 0 27 18 45 45 45 12 0 26 -5 33 -12z m1642
-18 c11 -11 20 -27 20 -35 0 -21 -36 -55 -59 -55 -22 0 -51 35 -51 62 0 18 36
48 57 48 7 0 22 -9 33 -20z m1470 -170 l0 -190 -38 0 c-47 0 -154 19 -165 29
-11 11 94 215 149 289 26 34 49 62 51 62 1 0 3 -85 3 -190z m201 92 c38 -53
129 -227 129 -246 0 -12 -48 -23 -177 -40 l-23 -3 0 171 c0 94 -3 182 -6 196
-5 25 -5 25 21 -5 14 -16 40 -49 56 -73z m4311 -63 c19 -25 19 -28 4 -58 -14
-26 -23 -31 -51 -31 -24 0 -39 7 -49 22 -21 29 -20 40 5 72 27 34 64 32 91 -5z
m-1929 -75 c69 -36 139 -116 152 -174 5 -24 11 -28 56 -33 63 -8 123 -41 162
-89 24 -30 30 -47 31 -92 1 -61 -17 -95 -74 -133 -33 -23 -35 -23 -419 -23
l-386 0 -37 25 c-58 39 -83 89 -82 162 1 129 89 208 232 208 72 1 74 2 87 30
18 44 63 93 104 115 45 24 131 26 174 4z m-3035 -141 c39 -20 72 -36 72 -38 0
-1 -11 -27 -24 -56 -35 -81 -73 -211 -100 -342 -13 -65 -26 -120 -28 -123 -6
-5 -261 124 -340 172 -71 43 -71 47 -1 169 62 108 126 197 197 272 l58 63 47
-41 c25 -23 79 -57 119 -76z m1253 42 c73 -78 156 -199 208 -302 22 -46 41
-84 41 -87 0 -7 -382 -216 -396 -216 -1 0 -8 26 -14 58 -22 107 -69 287 -100
376 -16 50 -30 90 -30 91 0 1 33 18 73 38 39 20 90 52 112 71 22 20 42 34 45
33 3 -1 30 -29 61 -62z m-2257 12 c36 -26 -4 -84 -41 -61 -25 16 -28 45 -7 61
10 7 21 13 24 13 3 0 14 -6 24 -13z m5679 -116 c148 -39 309 -142 417 -268
352 -411 264 -1023 -186 -1291 -249 -148 -578 -158 -830 -26 -100 53 -149 89
-216 158 -102 103 -159 202 -205 353 -23 77 -26 106 -27 228 -1 171 19 259 96
415 46 94 62 116 152 205 138 137 267 208 436 240 98 19 260 12 363 -14z
m-6342 9 c10 -6 19 -19 19 -30 0 -26 -50 -32 -242 -28 -168 3 -189 9 -169 47
11 20 19 21 192 21 105 0 188 -4 200 -10z m1969 -45 c36 -8 84 -15 108 -15
l42 0 0 -390 0 -390 -22 0 c-13 0 -108 -1 -212 -3 l-189 -3 7 98 c15 238 58
455 126 641 29 80 35 88 54 82 11 -3 50 -12 86 -20z m579 -115 c63 -196 98
-379 108 -562 l6 -128 -205 0 -206 0 -7 163 c-3 89 -5 266 -3 392 l3 230 67 7
c37 5 94 14 125 21 69 16 66 20 112 -123z m-3634 19 c60 -17 91 -44 129 -112
43 -78 191 -519 229 -684 5 -23 5 -23 -121 -24 -70 0 -203 -1 -297 -2 l-170
-2 0 350 c0 314 2 353 17 382 22 40 72 78 118 91 47 14 49 14 95 1z m1099 5
c17 -6 21 -41 8 -60 -7 -11 -373 -26 -400 -17 -22 8 -34 41 -22 63 10 19 21
20 205 20 106 0 200 -3 209 -6z m909 -132 c41 -32 91 -69 113 -82 21 -13 40
-25 42 -26 2 -1 -8 -34 -22 -73 -29 -79 -61 -231 -71 -333 l-7 -68 -155 0
-155 0 7 78 c9 99 31 215 56 300 18 60 107 262 116 262 2 0 36 -26 76 -58z
m2626 -31 c66 -126 131 -386 131 -522 l0 -26 -155 -2 -155 -2 0 43 c0 73 -28
228 -60 332 -17 55 -26 102 -22 105 5 3 40 27 78 53 38 26 83 58 99 72 17 14
33 25 36 26 4 0 25 -35 48 -79z m-3576 13 c42 -7 50 -30 15 -43 -37 -14 -321
-23 -351 -12 -28 11 -37 45 -14 54 18 8 305 8 350 1z m-2685 -162 c17 -27 32
-56 32 -65 0 -30 -23 -31 -47 -2 l-24 28 -29 -28 c-27 -26 -50 -27 -50 -2 0
15 68 117 78 117 4 0 22 -22 40 -48z m3927 -18 c61 -39 253 -135 318 -159 43
-16 47 -21 43 -44 -3 -14 -8 -61 -12 -103 l-6 -78 -254 0 c-199 0 -254 3 -254
13 0 42 24 194 41 267 28 113 45 153 61 144 7 -4 36 -22 63 -40z m2019 -1 c24
-73 54 -219 61 -304 l7 -76 -251 -1 -251 -1 0 52 c0 29 -3 75 -6 103 l-7 52
134 65 c74 36 168 85 209 110 41 25 78 46 82 46 3 1 13 -20 22 -46z m-3351 6
c37 -45 11 -110 -50 -125 -53 -14 -113 46 -99 99 14 56 110 73 149 26z m-2608
-113 c10 -53 3 -81 -22 -84 -21 -3 -23 1 -23 41 0 25 3 52 6 61 11 28 33 17
39 -18z m1283 -2 c63 -46 62 -42 62 -561 l0 -473 -160 0 -161 0 3 478 c3 531
1 514 72 558 34 21 51 24 99 21 37 -2 67 -10 85 -23z m-1282 -128 c3 -13 4
-38 2 -57 -2 -26 -8 -34 -23 -34 -16 0 -21 8 -23 44 -2 24 -1 50 2 57 9 22 35
16 42 -10z m456 -3 c37 -33 10 -93 -43 -93 -28 0 -59 31 -59 59 0 44 67 66
102 34z m-454 -159 c2 -27 -2 -45 -12 -53 -24 -20 -36 -4 -36 50 0 47 2 50 23
47 18 -2 23 -10 25 -44z m3192 -34 c17 -17 18 -24 8 -45 l-11 -25 -201 -2
c-751 -6 -736 -7 -736 46 0 46 -1 46 472 46 434 0 449 -1 468 -20z m4321 10
c10 -6 19 -21 19 -34 0 -51 -2 -51 -467 -54 -386 -4 -436 -2 -458 12 -27 18
-33 54 -13 74 16 16 889 17 919 2z m-7515 -84 c11 -44 1 -81 -23 -84 -22 -3
-23 0 -23 52 0 49 2 56 20 56 12 0 22 -9 26 -24z m802 4 c58 -36 62 -58 62
-364 l0 -275 -151 -3 c-83 -2 -153 -1 -155 1 -2 2 -4 124 -4 271 0 256 1 267
23 310 13 27 35 50 57 62 47 25 126 24 168 -2z m2906 -67 c14 -155 45 -307 80
-393 4 -10 -4 -22 -25 -34 -18 -11 -68 -48 -111 -82 l-78 -64 -44 88 c-24 48
-56 125 -70 172 -29 91 -66 288 -66 350 l0 38 154 1 154 2 6 -78z m580 16 c3
-34 6 -87 6 -119 l0 -56 -54 -17 c-66 -21 -257 -114 -331 -162 -38 -24 -57
-31 -60 -23 -33 96 -74 318 -75 406 l0 32 254 0 253 0 7 -61z m556 -328 l0
-390 -47 -6 c-54 -6 -160 -29 -185 -39 -13 -6 -22 8 -47 72 -80 208 -141 507
-141 689 l0 63 210 0 210 0 0 -389z m539 276 c-8 -121 -22 -213 -54 -352 -25
-107 -97 -321 -114 -338 -7 -7 -27 -7 -63 1 -29 7 -81 15 -115 18 l-63 7 0
383 0 384 208 0 207 0 -6 -103z m637 16 c-9 -112 -22 -183 -48 -263 -11 -36
-23 -68 -25 -72 -2 -4 -27 6 -56 23 -71 42 -260 132 -326 155 l-53 19 6 59 c3
32 6 83 6 112 l0 54 251 0 252 0 -7 -87z m384 58 c0 -55 -21 -185 -46 -281
-26 -98 -94 -265 -123 -301 -16 -21 -18 -20 -96 43 -44 35 -92 71 -106 80
l-26 16 28 84 c29 86 59 261 59 342 l0 46 155 0 155 0 0 -29z m-6405 -136 c0
-44 -3 -50 -22 -53 -21 -3 -23 1 -23 46 0 53 6 64 30 60 11 -3 15 -16 15 -53z
m5 -135 c0 -28 -5 -42 -19 -49 -23 -13 -31 2 -31 58 0 45 7 54 31 40 14 -7 19
-21 19 -49z m1642 43 c22 -20 23 -51 1 -75 -31 -35 -93 -10 -93 38 0 48 55 70
92 37z m918 -69 c45 -18 48 -24 22 -47 -16 -14 -26 -15 -73 -5 -106 22 -218
-24 -274 -111 -29 -47 -49 -121 -43 -156 5 -24 4 -25 -31 -18 -20 5 -68 8
-107 7 -58 -1 -80 -6 -116 -27 -46 -27 -91 -77 -107 -121 -8 -19 -17 -24 -41
-24 -26 1 -30 4 -24 22 38 133 154 218 294 218 65 0 70 1 70 21 1 38 39 110
83 156 64 66 145 101 234 101 43 0 89 -6 113 -16z m5031 4 c56 -16 114 -70
134 -123 55 -143 -51 -292 -206 -289 -186 4 -278 231 -145 360 62 59 135 77
217 52z m-7214 -23 c71 -30 73 -34 73 -172 l0 -123 -147 0 -148 0 1 83 c1 45
2 93 3 107 1 37 49 89 96 105 52 18 78 18 122 0z m3963 -120 c26 -117 62 -237
96 -317 13 -32 24 -61 24 -65 0 -4 -32 -23 -70 -42 -39 -19 -91 -54 -116 -78
-52 -51 -44 -53 -133 40 -107 114 -254 354 -228 374 63 50 387 208 398 195 3
-4 16 -52 29 -107z m1199 85 c97 -38 351 -173 351 -187 0 -2 -13 -29 -29 -61
-49 -97 -146 -236 -215 -309 l-65 -70 -47 44 c-26 24 -81 60 -121 80 -57 28
-72 40 -67 52 37 85 78 209 104 316 37 154 38 158 48 153 4 -3 22 -10 41 -18z
m-2830 -29 c36 -45 36 -44 14 -77 l-16 -25 -39 37 c-21 21 -38 42 -38 47 0 11
33 56 42 57 3 0 20 -18 37 -39z m-2715 7 c11 -42 6 -78 -10 -85 -9 -3 -20 0
-25 8 -10 16 -12 83 -2 92 13 14 31 6 37 -15z m6 -168 c0 -47 -17 -69 -41 -54
-15 9 -10 81 7 98 23 24 34 10 34 -44z m7245 -15 c6 -22 25 -67 42 -100 l29
-60 0 -240 -1 -240 -77 -3 -78 -3 0 346 0 346 36 -3 c33 -3 38 -7 49 -43z
m824 12 c52 -35 80 -92 81 -164 0 -45 -3 -53 -19 -53 -16 0 -20 11 -26 66 -5
51 -13 72 -33 94 -30 32 -129 74 -135 57 -1 -5 -29 -12 -60 -15 -56 -4 -57 -4
-57 23 l0 27 103 -4 c94 -3 108 -6 146 -31z m-4197 -85 c45 -94 141 -230 250
-352 126 -140 150 -164 206 -202 109 -75 302 -160 302 -134 0 2 3 11 6 19 3
10 -14 24 -58 47 -120 62 -268 171 -268 197 0 19 57 62 127 97 l72 36 52 -98
c63 -117 140 -224 226 -313 l63 -65 -63 3 c-374 22 -705 179 -990 470 -71 73
-157 181 -157 199 0 6 11 21 24 33 34 32 159 119 171 120 6 0 22 -26 37 -57z
m2218 -41 c25 -19 49 -38 54 -42 13 -11 -99 -156 -198 -254 -212 -210 -455
-345 -721 -400 -74 -15 -276 -36 -283 -30 -2 2 15 21 39 42 119 107 242 274
296 401 l13 32 58 -29 c74 -38 142 -88 142 -104 0 -17 -135 -118 -241 -181
-76 -46 -95 -70 -64 -82 20 -8 163 59 255 120 165 108 394 378 490 577 l23 46
46 -30 c25 -17 66 -47 91 -66z m790 -6 c0 -98 -1 -105 -20 -105 -19 0 -20 7
-20 105 0 98 1 105 20 105 19 0 20 -7 20 -105z m-5540 -30 c36 -18 60 -62 60
-107 0 -38 -30 -92 -59 -108 -14 -7 -199 -11 -584 -11 -622 -1 -609 -2 -642
61 -31 61 -7 148 49 170 11 5 274 9 584 9 485 1 567 -1 592 -14z m5745 -245
l0 -245 -67 -3 -68 -3 0 244 c0 134 3 247 7 251 4 4 35 6 68 4 l60 -3 0 -245z
m2616 220 c22 -12 26 -59 7 -78 -20 -20 -56 -14 -74 13 -15 23 -15 27 0 50 18
27 36 31 67 15z m-2208 -45 l57 -7 0 -210 0 -209 -77 3 -78 3 -3 222 -3 223
24 -9 c13 -5 49 -12 80 -16z m657 -71 c0 -57 -2 -65 -17 -62 -15 3 -19 16 -21
66 -3 57 -1 62 18 62 18 0 20 -6 20 -66z m-1270 -14 c0 -53 -2 -60 -20 -60
-18 0 -20 7 -20 60 0 53 2 60 20 60 18 0 20 -7 20 -60z m-4952 -22 c-3 -20
-10 -23 -50 -26 -42 -3 -48 -1 -48 17 0 23 12 29 63 30 34 1 38 -1 35 -21z
m312 -3 l0 -26 -142 3 c-140 3 -143 4 -146 26 -3 22 -3 22 142 22 l146 0 0
-25z m150 14 c0 -36 -101 -57 -114 -23 -12 30 -6 34 54 34 36 0 60 -4 60 -11z
m280 -14 l0 -25 -130 0 -130 0 0 25 0 25 130 0 130 0 0 -25z m140 0 c0 -23 -3
-25 -50 -25 -47 0 -50 2 -50 25 0 23 3 25 50 25 47 0 50 -2 50 -25z m154 16
c4 -5 3 -17 0 -26 -5 -12 -18 -15 -58 -13 -44 3 -51 6 -54 26 -3 20 0 22 52
22 30 0 57 -4 60 -9z m151 -16 c0 -18 -7 -20 -55 -20 -50 0 -55 2 -58 23 -3
22 -1 23 55 20 50 -3 58 -6 58 -23z m159 9 c10 -27 -3 -34 -60 -34 -51 0 -54
1 -54 25 0 24 3 25 54 25 40 0 55 -4 60 -16z m1563 -91 c-4 -60 -6 -135 -7
-167 l0 -59 -41 59 c-53 74 -139 224 -139 240 0 14 79 31 149 33 l43 1 -5
-107z m253 97 c30 -6 56 -13 59 -16 8 -8 -39 -93 -114 -208 l-65 -100 0 167 0
167 34 0 c18 0 57 -5 86 -10z m4135 -69 c34 -15 46 -16 66 -6 56 27 136 38
195 26 77 -15 103 -33 97 -65 -5 -24 -23 -37 -23 -18 0 5 -18 17 -40 27 -91
41 -249 -16 -296 -107 -8 -15 -14 -34 -14 -43 0 -21 80 -124 102 -131 23 -7
78 18 148 67 61 42 77 59 39 39 -17 -10 -34 -5 -104 31 -46 24 -81 47 -79 51
11 17 84 48 113 48 39 0 79 -17 113 -48 21 -20 30 -23 41 -14 11 9 18 8 31 -7
9 -10 14 -24 11 -32 -13 -30 -258 -204 -329 -234 -48 -20 -105 -20 -113 2 -6
16 31 57 72 80 14 9 9 18 -39 68 -62 65 -76 103 -52 140 16 24 15 24 -31 47
-25 13 -55 36 -66 50 -17 23 -18 29 -6 44 17 20 101 13 164 -15z m-1075 -16
c0 -46 23 -101 48 -114 12 -6 45 -14 74 -19 38 -5 54 -12 56 -25 3 -15 -5 -17
-56 -17 -99 0 -157 55 -164 158 -4 49 -3 52 19 52 20 0 23 -5 23 -35z m-1270
-110 c0 -128 -1 -135 -20 -135 -19 0 -20 7 -20 135 0 128 1 135 20 135 19 0
20 -7 20 -135z m2861 112 c69 -46 37 -137 -48 -137 -97 1 -90 149 8 159 3 1
21 -9 40 -22z m-3097 -103 c22 -21 20 -50 -4 -74 -24 -24 -29 -24 -58 -4 -26
18 -28 50 -5 76 20 22 46 23 67 2z m1836 -54 c0 -18 -7 -20 -65 -20 -36 0 -65
2 -65 4 0 2 -3 11 -6 20 -5 14 4 16 65 16 64 0 71 -2 71 -20z m148 -2 c3 -16
-5 -18 -62 -18 -60 0 -66 2 -66 20 0 19 5 21 62 18 50 -2 63 -6 66 -20z m160
5 c-3 -15 -16 -19 -71 -21 -62 -3 -67 -1 -67 18 0 18 6 20 71 20 62 0 70 -2
67 -17z m528 -7 c7 -8 19 -16 26 -19 19 -7 -4 -41 -29 -45 -31 -5 -46 20 -32
52 14 30 16 31 35 12z m404 -86 c56 -60 67 -92 43 -132 -38 -66 -180 -88 -302
-47 -87 30 -67 42 66 43 113 1 153 13 153 48 0 9 -16 26 -35 38 -41 25 -43 35
-13 67 30 32 45 29 88 -17z m-1764 -25 c33 -50 -20 -104 -71 -71 -32 21 -33
59 -3 80 32 23 55 20 74 -9z m-5007 -38 c82 -54 81 -46 81 -587 0 -283 -4
-489 -10 -511 -13 -45 -54 -84 -105 -98 -64 -18 -1728 -14 -1778 3 -48 18 -74
41 -98 88 -18 35 -19 66 -19 515 0 445 2 481 19 519 20 43 64 81 108 93 14 4
416 7 893 6 l866 0 43 -28z m459 -13 c38 -26 24 -84 -25 -99 -17 -4 -29 1 -48
19 -30 30 -31 45 -5 74 24 26 47 28 78 6z m-2576 -181 c25 -23 23 -68 -4 -87
-30 -21 -54 -20 -78 4 -55 55 24 136 82 83z m8832 -16 c19 -52 -34 -88 -75
-51 -23 21 -24 42 -2 66 25 28 65 20 77 -15z m-5817 -65 l-78 -77 -40 45 c-71
80 -74 75 64 97 67 11 124 18 127 16 2 -2 -31 -38 -73 -81z m2252 22 l134 -29
49 -57 c28 -31 81 -85 119 -118 58 -51 72 -60 84 -50 22 18 20 23 -32 82 -95
106 -93 95 -15 96 l69 2 67 -79 c62 -74 79 -100 56 -86 -5 3 -10 -1 -10 -9 0
-8 -19 -30 -41 -48 -23 -18 -60 -49 -82 -69 l-40 -35 82 -121 c44 -66 81 -123
81 -127 0 -12 -42 -6 -167 24 -69 17 -127 30 -128 30 -2 0 -45 -46 -96 -101
l-92 -101 5 123 5 124 -101 104 c-56 58 -113 117 -128 132 -33 32 -34 49 -13
192 22 152 25 159 43 155 10 -3 77 -18 151 -34z m2659 6 c24 -13 53 -40 65
-60 21 -34 22 -46 25 -328 4 -339 -2 -382 -53 -432 -45 -44 -80 -49 -346 -49
l-216 -1 -77 -140 c-43 -77 -81 -140 -86 -140 -10 0 -39 48 -106 175 l-53 100
-274 5 -275 5 -38 31 c-21 16 -47 48 -58 70 -20 37 -21 55 -21 349 0 282 2
313 19 347 18 38 63 73 114 88 15 5 322 8 682 7 l655 -2 43 -25z m-2010 -7 c3
-22 0 -23 -62 -23 -57 0 -66 2 -66 18 0 29 10 33 70 30 48 -3 55 -6 58 -25z
m152 -1 c41 -31 70 -81 70 -123 0 -32 -3 -39 -20 -39 -15 0 -21 9 -26 40 -9
56 -37 88 -82 95 -83 14 -83 14 -71 36 10 19 17 21 58 15 25 -3 57 -14 71 -24z
m-2958 -79 c-1 -43 -5 -103 -8 -133 l-6 -55 -25 30 c-14 17 -38 47 -54 69
l-29 39 63 62 c34 34 62 63 62 64 0 0 -1 -34 -3 -76z m-227 -23 l35 -22 -119
-131 c-179 -197 -291 -306 -291 -282 0 44 58 254 76 277 10 13 64 72 119 131
l100 107 22 -29 c13 -16 39 -39 58 -51z m-204 33 c-11 -16 -48 -58 -83 -95
l-63 -67 -57 6 -58 5 32 42 c17 22 47 58 67 79 33 35 38 37 97 37 35 0 66 5
69 10 3 6 8 10 11 10 3 0 -4 -12 -15 -27z m346 -212 c8 -7 13 -19 11 -26 -3
-14 -158 -179 -162 -173 -8 10 -56 140 -56 150 0 7 30 43 67 80 l66 67 30 -42
c17 -23 37 -48 44 -56z m3111 42 c-2 -44 -7 -59 -20 -61 -20 -4 -33 44 -23 88
5 21 13 30 26 30 18 0 20 -6 17 -57z m-6383 -37 c18 -27 11 -52 -17 -67 -42
-23 -90 45 -56 79 20 20 56 14 73 -12z m4780 -148 l7 -107 -122 82 c-70 46
-117 83 -109 86 57 20 205 57 210 52 4 -3 10 -54 14 -113z m-807 91 c48 -12
93 -25 100 -28 9 -5 -25 -32 -97 -80 -61 -40 -113 -77 -116 -82 -16 -24 -20
-2 -13 69 3 42 7 92 7 110 1 39 4 39 119 11z m2412 -39 c0 -42 -3 -50 -19 -50
-13 0 -20 9 -23 32 -7 45 1 68 23 68 16 0 19 -8 19 -50z m-2600 -34 c0 -18 -3
-61 -7 -96 l-6 -62 -180 -119 c-98 -66 -180 -119 -182 -119 -2 0 10 42 26 93
16 50 38 127 50 169 13 47 27 79 37 84 27 11 246 83 255 84 4 0 7 -15 7 -34z
m1190 -11 c63 -20 120 -42 126 -49 10 -9 61 -171 93 -288 10 -40 2 -49 -19
-22 -11 12 -188 127 -288 185 -29 17 -38 45 -44 152 -3 44 0 66 7 64 5 -2 62
-21 125 -42z m-4758 18 c37 -33 8 -113 -41 -113 -30 0 -63 33 -63 63 0 57 63
87 104 50z m2833 -50 c17 -36 31 -69 33 -73 5 -12 -50 -29 -131 -40 -141 -18
-139 -22 -35 85 51 52 95 95 98 95 3 0 19 -30 35 -67z m5405 27 c0 -18 -7 -20
-60 -20 -53 0 -60 2 -60 20 0 18 7 20 60 20 53 0 60 -2 60 -20z m150 1 c0 -23
-38 -34 -86 -25 -24 4 -34 12 -34 25 0 17 8 19 60 19 52 0 60 -2 60 -19z m150
-1 c0 -24 -36 -35 -85 -26 -26 5 -35 12 -35 26 0 18 7 20 60 20 53 0 60 -2 60
-20z m160 1 c0 -30 -97 -44 -120 -16 -20 24 -2 35 61 35 51 0 59 -3 59 -19z
m197 3 c38 -18 58 -44 68 -86 6 -25 5 -28 -19 -28 -16 0 -26 6 -26 14 0 8 -11
28 -24 43 -22 26 -30 28 -93 28 -63 0 -68 2 -71 23 -3 21 0 22 63 22 42 0 80
-6 102 -16z m-5017 -149 l0 -135 -110 55 c-60 30 -110 59 -110 64 0 4 28 25
63 47 34 21 82 53 107 71 25 18 46 33 48 33 1 0 2 -61 2 -135z m618 -47 c-73
-41 -166 -88 -173 -88 -3 0 -5 61 -4 134 l1 135 114 -76 114 -76 -52 -29z
m1672 112 c0 -53 -2 -60 -19 -60 -21 0 -29 29 -22 88 2 23 8 32 22 32 17 0 19
-8 19 -60z m2795 -50 c11 -18 -24 -80 -57 -100 -18 -11 -50 -20 -70 -20 -31 0
-38 4 -38 20 0 14 9 21 38 26 42 7 70 28 83 62 9 22 33 30 44 12z m-2795 -86
c0 -102 32 -133 137 -134 61 0 74 -3 83 -19 5 -11 10 -22 10 -25 0 -3 -35 -6
-77 -6 -124 0 -183 44 -196 145 -9 61 0 95 24 95 16 0 19 -8 19 -56z m2610
-11 c0 -10 -16 -31 -35 -46 -30 -24 -35 -34 -35 -70 1 -68 44 -107 119 -107
36 0 41 -3 41 -23 0 -23 -2 -23 -61 -16 -35 4 -73 16 -88 26 -55 41 -76 125
-46 183 29 56 105 94 105 53z m-5066 -40 c50 -26 92 -48 93 -48 5 -2 -73 -204
-85 -223 -7 -10 -26 -6 -87 16 -44 16 -81 35 -83 41 -6 18 52 261 62 261 5 0
50 -21 100 -47z m889 1 c4 -21 17 -76 27 -121 11 -45 20 -86 20 -92 0 -10
-158 -76 -165 -69 -14 14 -99 228 -93 233 14 13 185 93 193 91 5 -1 13 -20 18
-42z m-1090 -84 c-14 -63 -29 -119 -34 -125 -10 -10 -248 21 -262 34 -4 4 39
35 95 69 57 34 130 80 163 101 33 21 61 38 62 37 0 0 -10 -53 -24 -116z m1316
7 c52 -33 112 -67 134 -77 39 -17 40 -19 17 -24 -68 -16 -254 -45 -258 -41 -3
2 -17 58 -32 125 l-27 120 36 -22 c20 -12 78 -48 130 -81z m4221 -16 c5 -11
10 -31 10 -45 0 -23 4 -26 34 -26 70 0 73 -62 2 -68 -33 -3 -36 -6 -36 -33 0
-44 -17 -69 -45 -69 -23 0 -32 18 -26 54 5 26 -12 46 -40 46 -56 0 -50 60 7
70 26 5 29 10 32 48 3 37 6 42 27 42 14 0 29 -8 35 -19z m-3637 -258 c20 -14
38 -30 39 -34 4 -28 0 -32 -32 -34 -76 -4 -134 49 -100 90 16 19 41 12 93 -22z
m-2518 16 c7 -11 -115 -139 -133 -139 -28 0 -14 31 41 88 61 61 80 72 92 51z
m5700 -64 c171 -19 316 -35 323 -35 22 0 12 -19 -59 -107 -39 -50 -68 -94 -65
-103 2 -8 20 -53 40 -100 20 -47 36 -92 36 -100 0 -9 -26 -44 -58 -80 l-59
-65 -154 152 c-85 83 -166 161 -182 173 -43 34 -52 58 -31 82 18 19 17 21 -54
90 -46 45 -77 68 -87 64 -8 -3 -15 -3 -15 0 0 10 41 64 48 64 4 0 147 -16 317
-35z m-3004 -76 c74 -39 94 -61 72 -82 -12 -13 -163 93 -163 114 0 14 6 12 91
-32z m-2871 -65 c0 -7 -6 -26 -13 -43 l-13 -31 -50 51 c-40 40 -46 52 -34 59
8 5 24 16 35 24 19 14 22 13 47 -17 15 -18 28 -37 28 -43z m-1594 37 c5 -6 50
-26 99 -45 50 -19 89 -39 88 -44 -1 -5 22 -58 52 -118 45 -90 52 -111 41 -124
-14 -17 -86 -183 -86 -199 0 -5 -17 -15 -37 -22 -21 -7 -66 -25 -101 -40 l-63
-28 -72 28 c-40 15 -81 32 -92 36 -11 5 -24 7 -29 6 -5 -1 -6 5 -3 14 4 9 1
15 -8 15 -16 0 -42 46 -76 131 -11 29 -28 58 -37 65 -16 11 -16 13 0 31 20 21
98 189 98 209 0 8 8 14 18 14 9 0 55 18 102 39 98 45 93 44 106 32z m4861 -66
c278 -80 492 -152 553 -185 21 -11 21 -12 3 -32 -27 -30 -39 -34 -174 -68 -68
-17 -140 -36 -160 -41 l-36 -9 -6 -162 c-4 -90 -10 -188 -13 -219 l-6 -56 -81
24 c-45 12 -84 26 -88 31 -10 11 -106 229 -198 450 l-80 194 26 51 c33 65 42
77 59 77 7 0 98 -25 201 -55z m2261 -77 c245 -254 281 -298 240 -298 -13 0
-211 193 -310 303 -59 64 -68 80 -58 92 7 8 14 15 15 15 2 0 53 -51 113 -112z
m-5643 20 l82 -81 -24 -81 c-13 -45 -25 -86 -27 -92 -4 -11 -38 20 -228 204
-32 30 -58 59 -58 63 0 7 145 68 164 69 5 0 46 -37 91 -82z m840 12 c423 -55
566 -92 619 -163 21 -28 21 -35 23 -726 l3 -698 -133 29 c-72 15 -208 39 -302
53 -208 30 -324 50 -331 58 -6 6 54 252 81 332 10 28 40 104 67 170 63 151 69
221 25 278 -32 42 -77 55 -131 37 -44 -14 -67 -42 -147 -174 -41 -68 -66 -101
-71 -93 -4 6 -8 220 -8 474 l0 462 33 -4 c17 -3 140 -19 272 -35z m1682 -166
c-3 -108 -8 -198 -11 -201 -3 -4 -74 -8 -158 -11 -84 -2 -163 -10 -175 -16
-12 -6 -39 -27 -60 -47 -39 -36 -40 -36 -98 -28 -41 5 -80 3 -126 -6 -46 -10
-77 -11 -100 -5 -31 9 -59 0 -59 -20 0 -5 21 -24 48 -44 26 -20 71 -56 99 -81
29 -24 59 -42 66 -39 10 3 12 -5 9 -30 -5 -42 22 -93 107 -203 31 -39 77 -103
104 -141 26 -37 97 -118 157 -178 l109 -109 2 -57 c1 -32 0 -60 -3 -63 -3 -3
-111 -19 -239 -36 -268 -34 -596 -87 -620 -100 -15 -8 -17 46 -24 645 -4 359
-4 676 0 705 13 96 68 133 255 170 152 31 573 89 654 90 l69 1 -6 -196z
m-2847 151 c0 -7 -132 -149 -292 -316 -161 -166 -331 -343 -378 -392 l-85 -90
-14 26 c-13 24 -11 29 14 59 47 57 668 699 700 724 30 23 55 18 55 -11z m4776
-11 c82 -55 67 -187 -24 -215 -98 -29 -184 79 -137 171 8 16 25 36 37 44 29
21 92 20 124 0z m-4612 -175 l117 -121 -63 -67 c-69 -73 -220 -228 -505 -518
l-188 -193 -122 118 -122 117 86 90 c377 393 538 560 597 622 38 40 72 73 76
73 3 0 59 -54 124 -121z m-844 61 c25 -25 25 -31 0 -58 -25 -26 -37 -27 -62
-5 -22 20 -23 32 -2 61 19 27 38 28 64 2z m-1500 -24 c0 -18 -22 -26 -76 -26
-37 0 -44 3 -44 20 0 18 7 20 60 20 45 0 60 -4 60 -14z m418 2 c18 -18 14 -45
-10 -62 -37 -26 -79 14 -58 55 12 21 50 25 68 7z m7255 -174 c10 -92 16 -169
13 -171 -2 -3 -40 -9 -83 -14 -43 -5 -136 -16 -206 -25 -71 -9 -130 -14 -132
-12 -6 6 -32 180 -40 264 l-7 72 69 11 c122 21 267 39 319 40 l50 1 17 -166z
m-4693 -254 l0 -400 25 -12 c18 -8 31 -8 54 2 32 13 54 42 126 165 60 103 92
145 111 145 8 0 26 -11 39 -24 30 -30 27 -53 -23 -176 -59 -148 -80 -211 -122
-375 -49 -189 -66 -233 -133 -341 -68 -111 -85 -118 -282 -118 -139 0 -240 12
-274 33 -10 7 -5 20 23 60 19 29 40 69 46 89 6 20 16 165 21 322 6 157 15 302
20 322 7 26 36 65 95 128 48 49 90 90 95 90 5 0 9 -34 9 -75 0 -72 1 -76 26
-85 14 -6 30 -10 35 -10 5 0 9 132 9 330 l0 330 50 0 50 0 0 -400z m2178 394
c21 -6 22 -11 22 -110 0 -115 -2 -118 -57 -84 -33 20 -33 20 -33 103 0 46 3
87 7 90 8 9 31 9 61 1z m-5853 -38 c40 -17 55 -42 55 -91 0 -47 -13 -71 -50
-90 -49 -25 -88 -19 -126 19 -47 47 -47 95 0 142 38 38 67 42 121 20z m7185
-109 c41 -40 108 -108 149 -150 67 -71 76 -77 105 -72 28 5 42 -3 128 -76 54
-45 96 -85 93 -89 -6 -9 -190 -141 -232 -165 l-32 -19 -62 61 -63 61 0 83 c-1
83 -1 84 -26 84 -23 0 -25 -4 -28 -53 l-3 -53 -32 27 c-91 76 -347 331 -347
346 0 11 10 20 28 24 71 15 180 44 202 53 14 5 30 10 35 10 6 1 44 -32 85 -72z
m-6704 22 c21 -17 44 -64 44 -88 0 -38 -32 -89 -70 -110 -44 -25 -98 -28 -106
-6 -4 8 -10 13 -14 10 -4 -3 -18 3 -30 13 -16 13 -24 32 -27 69 -5 45 -2 53
27 86 18 20 46 41 64 45 35 10 89 0 112 -19z m9074 -58 c17 -40 29 -75 27 -77
-2 -2 -49 1 -105 8 l-101 12 66 73 c37 41 70 70 74 66 4 -4 22 -41 39 -82z
m-373 -49 c34 -26 63 -51 63 -56 0 -4 -14 -27 -32 -50 -17 -22 -33 -43 -35
-45 -2 -2 -5 -2 -8 1 -6 6 -85 197 -85 205 0 11 38 -10 97 -55z m-5950 31 c39
-51 43 -44 -125 -216 -608 -622 -548 -564 -569 -541 -10 11 -26 25 -35 30 -13
7 47 73 344 377 198 202 363 367 366 367 2 0 11 -8 19 -17z m5607 -220 c65
-104 143 -225 172 -270 l54 -83 136 0 135 0 -3 -256 -3 -256 -32 -28 c-44 -40
-88 -42 -688 -38 -492 3 -511 4 -537 23 -52 38 -58 74 -58 321 0 171 3 226 13
229 6 2 81 6 166 7 l154 3 142 247 c78 136 150 257 160 268 10 11 30 20 44 20
23 0 40 -23 145 -187z m-8701 151 c86 -48 153 -155 127 -204 -14 -25 -21 -19
-40 30 -21 58 -58 105 -108 140 -26 19 -49 35 -51 36 -5 4 9 24 18 24 5 0 29
-11 54 -26z m5699 -10 c59 -18 113 -34 120 -34 7 0 37 -11 66 -25 44 -20 56
-32 73 -71 11 -25 18 -48 15 -51 -3 -3 -36 2 -73 12 -130 32 -409 93 -484 105
-56 9 -81 9 -97 1 -27 -14 -54 -14 -87 1 -34 15 -31 28 17 65 l42 31 151 1
c144 0 154 -1 257 -35z m-5024 -44 c58 -35 65 -92 18 -147 -21 -24 -32 -28
-76 -28 -46 0 -55 4 -82 34 -25 28 -29 39 -24 70 7 47 55 91 99 91 17 0 47 -9
65 -20z m-248 -10 c0 -47 -80 -114 -129 -108 -33 4 -43 38 -10 38 28 0 105 44
113 65 6 17 26 21 26 5z m4634 -16 c10 -26 7 -52 -8 -57 -15 -6 -96 39 -96 53
0 22 96 26 104 4z m508 -99 c295 -66 462 -106 560 -132 l100 -27 -6 -30 c-4
-16 -9 -32 -11 -35 -3 -3 -119 23 -258 57 -138 34 -331 80 -427 103 -180 43
-210 53 -210 70 0 13 38 28 72 28 15 1 96 -15 180 -34z m-5785 -27 c23 -24 49
-62 59 -86 15 -40 15 -44 0 -61 -70 -77 -196 -27 -196 77 0 55 38 112 74 112
12 0 40 -19 63 -42z m122 -4 c20 -26 38 -90 28 -100 -3 -3 -17 19 -31 48 -14
29 -33 64 -43 77 -17 24 -17 24 4 13 12 -7 31 -24 42 -38z m5299 20 c20 -8 83
-60 139 -116 l103 -101 53 5 c33 3 65 13 84 26 17 12 43 22 58 22 29 0 340
-77 366 -91 11 -6 18 -29 23 -76 3 -37 9 -84 12 -103 6 -35 5 -36 -161 -180
-92 -80 -171 -146 -175 -148 -12 -5 -346 325 -386 381 -21 29 -75 102 -121
164 -120 160 -129 184 -80 218 27 19 39 19 85 -1z m-4483 -118 c-32 -49 -119
-56 -165 -14 -26 25 -13 46 18 29 29 -15 70 -12 117 8 45 20 54 14 30 -23z
m-255 25 c0 -5 -28 -29 -62 -53 -73 -51 -122 -117 -146 -200 -19 -65 -42 -78
-42 -23 0 51 35 136 76 184 54 62 174 126 174 92z m6267 -106 c65 -65 103 -95
118 -95 13 0 67 29 121 65 l98 65 70 -67 c39 -37 75 -70 80 -75 15 -12 -30
-72 -203 -270 -9 -10 -18 -18 -22 -18 -4 0 -37 60 -74 133 -37 72 -74 136 -84
141 -31 17 -90 79 -84 89 3 6 1 7 -5 3 -11 -7 -132 99 -132 116 0 22 31 0 117
-87z m-5669 34 c107 -52 169 -152 143 -231 l-11 -34 -73 72 c-65 64 -132 112
-143 102 -2 -2 8 -16 22 -31 27 -30 24 -47 -7 -47 -12 0 -19 -5 -16 -12 2 -7
20 -13 40 -13 30 0 45 -9 86 -49 28 -26 48 -52 45 -57 -9 -15 -70 -10 -116 10
-87 37 -143 136 -163 285 l-7 49 69 -7 c45 -4 89 -17 131 -37z m582 -16 c-1
-67 -42 -179 -82 -220 -18 -19 -50 -43 -70 -54 -39 -20 -118 -26 -118 -9 0 5
21 32 46 59 41 44 51 50 93 53 52 3 58 20 10 28 l-32 5 26 31 c15 18 27 37 27
43 0 30 -33 3 -153 -126 -32 -35 -60 -63 -62 -63 -2 0 -9 16 -15 35 -17 51 10
126 65 181 49 48 137 82 218 83 l47 1 0 -47z m-1575 -2 c47 -27 75 -76 75
-132 0 -59 -15 -64 -30 -9 -13 50 -52 95 -101 121 -50 25 -54 54 -6 44 17 -4
45 -15 62 -24z m-185 -46 c-7 -8 -17 -15 -23 -15 -5 0 -2 9 8 20 21 23 35 19
15 -5z m8280 0 c-10 -12 -40 -15 -151 -15 -117 0 -139 2 -139 15 0 13 23 15
151 15 134 0 150 -2 139 -15z m1030 0 c0 -12 -19 -15 -110 -15 -91 0 -110 3
-110 15 0 12 19 15 110 15 91 0 110 -3 110 -15z m-7095 -172 l115 -117 -47
-48 c-26 -26 -50 -48 -53 -48 -3 0 -38 32 -79 70 -41 39 -78 70 -82 70 -11 0
-69 69 -69 83 0 10 88 107 97 107 2 0 55 -53 118 -117z m-835 -78 c0 -42 -3
-55 -15 -55 -9 0 -15 9 -15 24 0 24 19 86 26 86 2 0 4 -25 4 -55z m-681 -4
c12 -12 17 -27 14 -40 -5 -19 -14 -20 -421 -23 -230 -2 -427 -1 -439 1 -27 4
-38 33 -23 61 11 20 18 20 430 20 401 0 421 -1 439 -19z m5590 -78 c33 -32
248 -289 261 -314 11 -20 -10 -44 -75 -89 -113 -78 -245 -116 -367 -108 l-71
6 -63 63 c-35 35 -79 83 -100 107 -44 52 -55 36 141 207 192 167 219 179 274
128z m-4665 -44 c73 -10 120 -45 159 -120 25 -46 28 -62 24 -111 -6 -63 -35
-123 -75 -153 -26 -19 -45 -20 -355 -23 -320 -3 -328 -2 -358 18 -95 68 -96
254 -3 342 55 52 89 57 329 56 121 0 247 -4 279 -9z m1254 -11 c7 -7 12 -31
12 -54 0 -44 12 -54 66 -54 12 0 28 -7 35 -16 11 -14 10 -19 -10 -35 -13 -11
-38 -19 -57 -19 -34 0 -34 -1 -34 -44 0 -54 -21 -81 -51 -66 -15 8 -19 22 -19
60 0 49 -1 50 -29 50 -81 0 -113 50 -43 69 20 6 45 11 55 11 13 0 17 9 17 43
0 42 13 67 35 67 6 0 16 -5 23 -12z m-2268 -138 l0 -140 -314 0 -314 0 -26 31
c-25 29 -26 37 -26 140 l0 109 340 0 340 0 0 -140z m6968 36 l37 -35 38 37 37
36 21 -21 21 -20 -31 -35 c-17 -20 -31 -39 -31 -42 0 -4 11 -19 25 -34 31 -32
29 -66 -2 -70 -13 -2 -23 1 -23 7 0 5 -14 20 -31 32 l-31 21 -37 -36 c-35 -35
-39 -36 -55 -21 -22 22 -21 29 15 70 l32 36 -32 33 c-28 29 -31 37 -22 55 16
29 25 27 69 -13z m-1878 -112 l0 -61 -67 -11 c-38 -7 -122 -19 -188 -27 -66
-8 -196 -26 -290 -40 -93 -13 -216 -30 -271 -36 -95 -12 -103 -15 -118 -41
-10 -15 -28 -31 -42 -34 -36 -9 -89 4 -110 27 -10 12 -26 25 -35 29 -13 8
-566 98 -692 113 -21 3 -40 7 -43 10 -11 11 10 37 30 37 66 -1 677 -103 724
-122 52 -20 82 -19 229 10 81 17 220 39 308 51 88 12 242 32 343 46 101 14
187 25 193 25 5 0 9 26 9 58 0 40 3 53 10 42 5 -8 10 -42 10 -76z m1263 -15
c29 -16 37 -28 37 -61 0 -27 -40 -68 -67 -68 -21 0 -63 46 -63 70 0 22 41 70
60 70 6 0 21 -5 33 -11z m-4643 -21 c27 -29 22 -66 -11 -91 -64 -47 -129 42
-73 98 22 22 60 18 84 -7z"/>
<path d="M4990 9260 c-20 -20 -26 -65 -12 -86 10 -15 47 -34 67 -34 24 0 65
46 65 73 0 31 -39 67 -73 67 -15 0 -36 -9 -47 -20z"/>
<path d="M5702 9268 c-31 -31 1 -118 44 -118 64 0 93 87 40 122 -17 12 -71 9
-84 -4z"/>
<path d="M4146 9254 c-23 -22 -11 -34 34 -34 46 0 53 -14 39 -80 -7 -34 -7
-55 0 -69 17 -31 13 -38 -26 -48 -23 -5 -38 -15 -38 -23 0 -21 70 -25 99 -7
19 13 26 13 47 1 41 -23 69 -17 110 25 35 35 39 44 39 90 0 85 -42 141 -105
141 -16 0 -38 -7 -49 -15 -17 -13 -21 -12 -38 10 -23 30 -87 35 -112 9z m241
-73 c21 -26 16 -108 -7 -131 -46 -46 -99 -11 -102 68 -3 75 68 116 109 63z"/>
<path d="M4073 9164 c-16 -7 -17 -51 -2 -56 7 -2 30 -1 53 2 36 4 41 8 41 30
0 22 -5 25 -40 27 -22 1 -46 0 -52 -3z"/>
<path d="M4675 9059 c-50 -34 -128 -89 -175 -123 -47 -35 -130 -93 -185 -131
-124 -85 -145 -103 -145 -129 0 -37 16 -51 42 -39 24 11 390 264 486 336 43
32 55 37 67 27 14 -12 58 -61 303 -344 62 -72 136 -157 163 -188 27 -31 49
-59 49 -62 0 -3 -266 -6 -590 -6 l-591 0 -8 -22 c-5 -13 -5 -31 1 -41 8 -16
62 -17 966 -15 l957 3 3 26 c6 48 -5 49 -317 50 l-291 1 -88 96 c-96 107 -248
280 -388 441 -51 58 -109 123 -131 143 l-38 37 -90 -60z"/>
<path d="M5123 9014 c-15 -24 -15 -29 -2 -53 29 -52 109 -31 109 29 0 35 -17
50 -57 50 -24 0 -37 -7 -50 -26z"/>
<path d="M5940 8959 c0 -27 -8 -46 -29 -68 -26 -28 -35 -31 -82 -30 -40 2 -55
-2 -65 -16 -19 -26 2 -57 48 -69 43 -11 101 14 131 55 22 30 27 114 8 145 -9
16 -10 14 -11 -17z"/>
<path d="M5882 8604 c-18 -12 -22 -24 -20 -52 5 -65 90 -85 116 -27 17 36 15
52 -8 75 -24 24 -57 26 -88 4z"/>
<path d="M2868 8556 c-51 -38 24 -136 118 -157 59 -13 84 -8 84 19 0 13 -20
27 -74 51 -76 33 -101 53 -107 83 -3 14 -7 15 -21 4z"/>
<path d="M9286 9158 c3 -5 10 -6 15 -3 13 9 11 12 -6 12 -8 0 -12 -4 -9 -9z"/>
<path d="M1003 9083 c-12 -2 -34 -18 -48 -34 -46 -55 -27 -127 41 -155 29 -12
39 -12 68 0 116 48 63 211 -61 189z"/>
<path d="M926 8732 c-271 -2 -312 -4 -328 -19 -10 -9 -18 -23 -18 -31 0 -40
18 -41 467 -42 l433 0 15 24 c13 19 14 29 6 45 -10 18 -23 20 -139 23 -70 2
-266 2 -436 0z"/>
<path d="M940 8517 c-56 -30 -89 -71 -74 -95 14 -22 45 -28 58 -10 34 44 68
58 139 58 67 0 71 -1 103 -35 35 -37 52 -43 72 -23 17 17 14 39 -8 66 -52 63
-206 84 -290 39z"/>
<path d="M9320 8450 c0 -158 2 -181 16 -187 9 -3 24 -2 33 4 13 9 16 36 19
173 3 173 -1 190 -44 190 l-24 0 0 -180z"/>
<path d="M9001 8356 c-21 -25 -10 -70 17 -74 24 -4 62 22 62 42 -1 34 -58 58
-79 32z"/>
<path d="M9652 8363 c-38 -15 -33 -83 8 -83 35 0 50 12 50 39 0 41 -23 58 -58
44z"/>
<path d="M6935 8561 c-56 -10 -80 -25 -107 -68 l-23 -38 -3 -475 c-2 -403 -1
-478 12 -495 14 -19 24 -20 338 -17 203 2 328 8 336 14 9 8 12 118 12 490 0
542 1 531 -72 569 -40 21 -58 23 -248 25 -113 2 -223 -1 -245 -5z m95 -71 c0
-5 54 -11 128 -13 l127 -3 -137 -2 c-117 -2 -138 0 -138 13 0 8 5 15 10 15 6
0 10 -4 10 -10z m223 3 c-29 -2 -77 -2 -105 0 -29 2 -6 3 52 3 58 0 81 -1 53
-3z m177 -518 l0 -435 -112 -1 c-62 0 -186 -2 -274 -4 l-162 -4 -6 37 c-3 20
-6 218 -6 440 l0 402 280 0 280 0 0 -435z"/>
<path d="M7117 7402 c-22 -24 -21 -55 1 -75 26 -24 47 -21 71 9 42 54 -26 117
-72 66z"/>
<path d="M8208 7541 c-52 -21 -123 -73 -138 -101 -13 -24 -3 -48 21 -55 14 -5
33 6 66 34 102 90 228 85 331 -12 26 -25 36 -29 50 -21 47 30 8 90 -92 141
-69 35 -172 41 -238 14z"/>
<path d="M8266 7375 c-57 -20 -90 -56 -82 -89 8 -33 27 -33 74 -1 20 14 49 25
64 25 14 0 40 -11 56 -25 17 -14 37 -25 46 -25 13 0 36 28 36 44 0 12 -48 50
-85 67 -48 22 -58 22 -109 4z"/>
<path d="M8225 6920 c-115 -18 -236 -64 -282 -108 -54 -50 -43 -104 30 -146
103 -60 284 -91 444 -76 105 10 161 23 228 56 81 39 107 64 108 106 2 63 -66
114 -195 147 -86 22 -259 33 -333 21z m297 -86 c64 -15 128 -45 147 -67 10
-13 8 -19 -11 -37 -37 -35 -63 -35 -136 -2 -91 41 -159 55 -245 51 -66 -4 -72
-2 -75 16 -8 58 160 78 320 39z"/>
<path d="M290 6619 c0 -9 42 -44 115 -94 105 -72 126 -94 114 -116 -5 -11 -14
-19 -19 -19 -5 0 -67 42 -137 94 l-128 94 -5 -296 c-3 -163 -3 -301 -2 -305 2
-5 9 -2 15 6 14 16 209 154 230 163 19 7 43 -46 25 -57 -7 -4 -61 -42 -120
-86 -82 -59 -108 -83 -108 -100 l0 -23 504 0 c277 0 511 3 520 6 33 13 13 34
-104 116 -66 45 -119 90 -120 98 0 46 18 39 144 -51 70 -50 129 -89 132 -86 2
2 3 144 2 316 l-3 312 -150 -106 c-136 -96 -151 -104 -162 -88 -7 9 -13 20
-13 25 0 10 80 73 178 141 l76 52 -135 2 c-326 6 -849 7 -849 2z m592 -109
c111 -41 175 -145 166 -269 -6 -82 -32 -131 -96 -185 -131 -108 -324 -67 -407
86 -42 77 -41 151 6 237 71 133 195 182 331 131z"/>
<path d="M720 6434 c-105 -46 -155 -179 -100 -269 35 -57 79 -84 146 -91 74
-8 130 17 173 76 41 57 48 119 21 173 -56 108 -148 151 -240 111z m132 -97
c31 -23 53 -77 43 -106 -3 -11 -22 -34 -42 -52 -32 -27 -42 -31 -80 -26 -50 5
-71 20 -89 64 -22 52 6 115 61 139 35 15 69 9 107 -19z"/>
<path d="M8845 5687 c-26 -6 -57 -28 -91 -62 -43 -42 -54 -61 -64 -107 -22
-97 14 -192 110 -287 28 -28 50 -56 50 -64 0 -47 261 -220 305 -203 32 12 12
38 -67 90 -46 29 -100 69 -120 87 l-37 34 69 62 c86 79 123 149 123 232 0 104
-76 199 -175 220 -55 12 -50 12 -103 -2z"/>
<path d="M7656 4661 c-3 -5 -9 -47 -12 -95 l-7 -86 27 0 c30 0 86 26 86 40 0
5 -15 41 -32 79 -31 66 -49 84 -62 62z"/>
<path d="M2360 3623 c-50 -10 -60 -29 -60 -119 0 -72 3 -85 19 -94 13 -6 145
-10 361 -10 216 0 348 4 361 10 17 9 19 22 19 99 0 70 -3 91 -17 102 -13 11
-81 14 -337 15 -177 1 -332 -1 -346 -3z"/>
<path d="M1703 3585 c-119 -26 -228 -106 -278 -204 -87 -173 -68 -339 56 -475
106 -115 254 -165 398 -133 127 29 257 139 301 255 61 159 27 317 -96 439 -69
70 -135 105 -229 122 -70 13 -73 13 -152 -4z m67 -108 c0 -30 -3 -34 -42 -44
-84 -23 -169 -107 -198 -198 -7 -22 -14 -66 -14 -97 -1 -56 -2 -58 -27 -58
-19 0 -28 6 -33 23 -27 102 42 270 140 340 50 36 118 66 152 66 18 1 22 -4 22
-32z m138 14 c54 -22 135 -90 168 -142 33 -53 58 -152 50 -203 -9 -58 -36
-136 -47 -136 -5 0 -34 20 -64 44 -30 25 -81 63 -113 85 -33 22 -62 46 -64 53
-3 7 -6 82 -7 166 -3 172 -5 167 77 133z m36 -474 c44 -34 80 -67 80 -72 2
-28 -179 -115 -205 -99 -5 3 -9 64 -9 135 l0 130 28 -16 c15 -9 63 -44 106
-78z"/>
<path d="M2834 3301 c-155 -71 -119 -309 50 -328 80 -9 144 29 178 106 37 82
2 176 -82 219 -54 27 -92 28 -146 3z m133 -76 c80 -53 33 -185 -66 -185 -94 0
-129 137 -50 194 28 20 78 16 116 -9z"/>
<path d="M2422 3280 c-38 -23 -71 -88 -72 -138 0 -93 81 -172 180 -172 56 0
70 8 70 41 0 29 0 29 -56 27 -55 -2 -58 -1 -90 36 -38 44 -43 82 -17 126 9 16
27 33 40 39 26 12 31 46 7 55 -23 9 -26 8 -62 -14z"/>
<path d="M2397 2920 c-50 -40 -55 -124 -9 -160 70 -55 140 15 75 76 l-26 24
21 23 c12 13 22 31 22 40 0 24 -51 22 -83 -3z"/>
<path d="M2762 2854 c-31 -21 -30 -69 2 -90 58 -37 121 51 64 90 -28 20 -38
20 -66 0z"/>
<path d="M7556 3304 c-14 -36 -5 -53 47 -84 28 -18 93 -63 142 -100 110 -82
149 -103 178 -95 12 4 57 28 100 53 72 44 89 63 68 76 -14 9 -127 -15 -157
-33 -29 -18 -29 -18 -89 22 -33 22 -101 71 -151 109 -91 68 -127 82 -138 52z"/>
<path d="M8706 3225 c-164 -122 -155 -118 -202 -95 -27 14 -58 20 -108 20
l-71 0 25 -24 c33 -31 157 -96 185 -96 25 0 119 55 183 108 26 21 73 56 104
78 39 26 58 46 58 60 0 22 -18 44 -36 44 -6 0 -68 -43 -138 -95z"/>
<path d="M7649 3027 c-27 -18 -35 -30 -37 -61 -3 -31 2 -44 25 -68 33 -35 62
-33 83 5 14 26 14 28 -14 50 -29 23 -30 33 -11 80 10 23 -5 21 -46 -6z"/>
<path d="M8754 3017 c3 -14 -2 -35 -14 -55 -25 -41 -25 -64 0 -80 23 -14 54
-3 77 27 34 44 2 131 -48 131 -17 0 -20 -4 -15 -23z"/>
<path d="M2015 2161 c-57 -35 -78 -67 -83 -123 -3 -44 0 -59 20 -88 66 -98
203 -89 265 18 31 52 27 97 -12 148 -49 64 -129 83 -190 45z"/>
<path d="M9148 1408 c-1 -2 -4 -102 -8 -222 l-5 -219 -29 -2 c-31 -1 -66 -36
-66 -66 0 -20 36 -49 62 -49 15 0 18 9 18 50 0 36 3 48 13 44 7 -2 23 5 35 16
19 18 22 31 22 95 0 89 9 111 61 147 41 30 50 57 23 79 -9 7 -36 39 -61 71
-38 50 -57 66 -65 56z"/>
<path d="M9058 1317 l-58 -52 -5 -139 c-2 -76 -2 -142 1 -147 3 -5 24 6 47 26
22 19 47 35 54 35 9 0 13 19 13 70 l0 71 -22 -20 c-26 -25 -38 -19 -38 21 0
23 10 40 40 68 34 32 40 43 40 78 0 23 -3 42 -7 42 -5 -1 -34 -24 -65 -53z"/>
<path d="M8903 1020 c-26 -12 -43 -26 -43 -36 0 -20 72 -94 92 -94 12 0 15 16
14 75 0 45 -5 75 -11 74 -5 0 -29 -9 -52 -19z"/>
</g>
</svg>
